<svg width="267" height="312" viewBox="0 0 267 312" fill="none" xmlns="http://www.w3.org/2000/svg">
<path d="M156.036 298.578C151.359 298.615 146.688 298.417 142.031 297.984C137.37 297.547 132.745 296.885 128.156 295.984C123.563 295.089 119.026 293.964 114.547 292.609C110.073 291.255 105.672 289.677 101.354 287.88C97.0313 286.083 92.8177 284.078 88.6979 281.854C84.5833 279.635 80.5885 277.214 76.7135 274.594C72.8385 271.969 69.1094 269.161 65.5208 266.161C61.9323 263.161 58.5 259.995 55.2292 256.651C51.8958 253.365 48.7292 249.917 45.7344 246.313C42.7396 242.708 39.9375 238.964 37.3177 235.078C34.6979 231.198 32.2813 227.193 30.0625 223.068C27.8438 218.943 25.8385 214.714 24.0417 210.391C22.2448 206.063 20.6719 201.661 19.3177 197.177C17.9583 192.693 16.8333 188.156 15.9323 183.563C15.0313 178.964 14.3594 174.339 13.9219 169.677C13.4844 165.01 13.2813 160.339 13.3073 155.656C13.3125 150.979 13.5469 146.313 14.0104 141.656C14.474 137 15.1615 132.375 16.0781 127.786C16.9948 123.198 18.1354 118.667 19.4948 114.193C20.8594 109.714 22.4375 105.313 24.2292 100.99C26.0208 96.6667 28.026 92.4427 30.2344 88.3177C32.4427 84.1927 34.8438 80.1823 37.4479 76.2917C40.0521 72.401 42.8385 68.6458 45.8073 65.026C48.7813 61.4115 51.9219 57.9479 55.2292 54.6354C56.8906 52.9948 58.5885 51.3958 60.3229 49.8385C62.0625 48.2813 63.8333 46.7656 65.6458 45.2917C67.4531 43.8229 69.3021 42.3958 71.1823 41.0156C73.0625 39.6302 74.974 38.2969 76.9219 37.0104C78.8646 35.7188 80.8385 34.4792 82.849 33.2865C84.8542 32.0938 86.8854 30.9531 88.9479 29.8594C91.0104 28.7656 93.099 27.724 95.2135 26.7344C97.3229 25.7448 99.4583 24.8021 101.62 23.9167C103.776 23.0313 105.958 22.1979 108.156 21.4167C110.354 20.6354 112.573 19.9063 114.807 19.2344C117.042 18.5625 119.292 17.9427 121.557 17.3802C123.823 16.8177 126.104 16.3073 128.391 15.8594C130.682 15.4063 132.979 15.0104 135.292 14.6667C137.599 14.3281 139.917 14.0469 142.24 13.8177C144.563 13.5885 146.891 13.4219 149.224 13.3073C151.552 13.1927 153.885 13.1354 156.224 13.1354C158.557 13.1354 160.891 13.1927 163.219 13.3073C165.552 13.4219 167.88 13.5885 170.203 13.8177C172.526 14.0469 174.844 14.3281 177.151 14.6667C179.464 15.0104 181.76 15.4063 184.052 15.8594C186.344 16.3073 188.62 16.8177 190.885 17.3802C193.151 17.9427 195.401 18.5625 197.635 19.2344C199.87 19.9063 202.089 20.6354 204.286 21.4167C206.484 22.1927 208.667 23.0313 210.823 23.9167C212.984 24.8021 215.12 25.7448 217.229 26.7344C219.344 27.724 221.432 28.7656 223.495 29.8594C225.557 30.9531 227.589 32.0938 229.594 33.2865C231.604 34.4792 233.578 35.7188 235.526 37.0104C237.469 38.2969 239.38 39.6302 241.26 41.0156C243.141 42.3958 244.99 43.8229 246.797 45.2917C248.609 46.7656 250.38 48.2813 252.12 49.8385C253.854 51.3958 255.552 52.9948 257.214 54.6354L266.583 45.599C264.771 43.7969 262.922 42.0365 261.026 40.3281C259.13 38.6146 257.193 36.9479 255.214 35.3281C253.234 33.7135 251.219 32.1406 249.167 30.625C247.109 29.1042 245.021 27.6354 242.896 26.2188C240.766 24.8021 238.604 23.4375 236.411 22.1302C234.219 20.8177 231.995 19.5625 229.74 18.3594C227.484 17.1563 225.198 16.0104 222.885 14.9219C220.573 13.8333 218.234 12.8021 215.875 11.8281C213.51 10.849 211.125 9.93229 208.719 9.07813C206.313 8.21875 203.885 7.42188 201.438 6.68229C198.99 5.94271 196.526 5.26042 194.047 4.64583C191.563 4.02604 189.068 3.46875 186.563 2.97396C184.052 2.47917 181.536 2.04167 179.005 1.67188C176.479 1.29688 173.943 0.989583 171.396 0.739583C168.854 0.489583 166.302 0.307292 163.75 0.182292C161.198 0.0572917 158.641 0 156.083 0C153.526 0.00520933 150.974 0.0677083 148.417 0.192708C145.865 0.322916 143.318 0.510417 140.771 0.765625C138.229 1.01563 135.693 1.33333 133.167 1.70833C130.635 2.08333 128.12 2.52083 125.609 3.02604C123.104 3.52604 120.609 4.08333 118.13 4.70833C115.651 5.32813 113.188 6.01042 110.745 6.75521C108.297 7.5 105.87 8.30208 103.464 9.16146C101.057 10.026 98.6771 10.9479 96.3125 11.9271C93.9531 12.9063 91.6146 13.9427 89.3073 15.0365C86.9948 16.125 84.7135 17.276 82.4635 18.4844C80.2083 19.6875 77.9844 20.9479 75.7917 22.2604C73.599 23.5781 71.4427 24.9427 69.3177 26.3646C67.1927 27.7865 65.1042 29.2552 63.0521 30.776C61 32.3021 58.9896 33.875 57.0104 35.4948C55.0365 37.1146 53.1042 38.7865 51.2135 40.5C49.3177 42.2188 47.4688 43.9792 45.6615 45.7865C43.8542 47.5938 42.0938 49.4427 40.3802 51.3333C38.6667 53.2292 36.9948 55.1615 35.375 57.1354C33.7552 59.1094 32.1875 61.125 30.6667 63.1771C29.1458 65.2292 27.6719 67.3177 26.2552 69.4427C24.8385 71.5625 23.4688 73.724 22.1563 75.9115C20.8438 78.1042 19.5885 80.3281 18.3854 82.5781C17.1823 84.8333 16.0365 87.1146 14.9427 89.4219C13.8542 91.7292 12.8177 94.0625 11.8438 96.4219C10.8646 98.7813 9.94792 101.167 9.08854 103.568C8.22917 105.974 7.42708 108.401 6.6875 110.844C5.94792 113.286 5.27083 115.745 4.65104 118.224C4.03125 120.703 3.47396 123.193 2.97917 125.698C2.47917 128.203 2.04688 130.714 1.67188 133.24C1.29688 135.766 0.989583 138.302 0.739583 140.844C0.489583 143.38 0.307292 145.927 0.182292 148.479C0.0572917 151.026 0 153.578 0 156.135C0.005208 158.688 0.0677083 161.24 0.192708 163.786C0.322916 166.339 0.510417 168.885 0.765625 171.422C1.02083 173.964 1.33333 176.495 1.70833 179.021C2.08854 181.547 2.52604 184.063 3.02604 186.568C3.52604 189.068 4.08854 191.557 4.71354 194.036C5.33854 196.51 6.02083 198.969 6.76563 201.411C7.51042 203.854 8.3125 206.276 9.17708 208.682C10.0417 211.083 10.9635 213.464 11.9427 215.823C12.9219 218.182 13.9583 220.516 15.0521 222.823C16.151 225.125 17.3021 227.406 18.5052 229.656C19.7135 231.906 20.974 234.125 22.2917 236.318C23.6094 238.505 24.9792 240.661 26.401 242.781C27.8229 244.901 29.2969 246.99 30.8177 249.036C32.3438 251.089 33.9167 253.099 35.5417 255.073C37.1667 257.042 38.8385 258.974 40.5573 260.865C42.2708 262.755 44.0365 264.604 45.849 266.406C47.6563 268.203 49.5104 269.958 51.401 271.667C53.2969 273.375 55.2344 275.036 57.2083 276.646C59.1875 278.26 61.2031 279.823 63.2552 281.339C65.3073 282.854 67.3958 284.318 69.5208 285.734C71.6458 287.146 73.8073 288.505 76 289.813C78.1875 291.12 80.4115 292.37 82.6667 293.573C84.9167 294.771 87.1979 295.911 89.5104 297C91.8177 298.089 94.151 299.115 96.5104 300.089C98.8698 301.063 101.255 301.979 103.656 302.833C106.063 303.688 108.484 304.484 110.932 305.224C113.375 305.964 115.833 306.641 118.313 307.26C120.786 307.875 123.276 308.432 125.781 308.927C128.286 309.427 130.802 309.859 133.328 310.234C135.849 310.604 138.385 310.917 140.927 311.167C143.464 311.417 146.01 311.604 148.563 311.724C151.109 311.849 153.661 311.911 156.214 311.911C158.766 311.911 161.318 311.849 163.87 311.724C166.417 311.604 168.964 311.417 171.505 311.167C174.042 310.917 176.578 310.604 179.104 310.234C181.63 309.859 184.141 309.427 186.646 308.927C189.151 308.432 191.641 307.875 194.12 307.26C196.594 306.641 199.057 305.964 201.5 305.224C203.943 304.484 206.365 303.688 208.771 302.833C211.177 301.979 213.557 301.063 215.917 300.089C218.276 299.115 220.609 298.089 222.922 297C225.229 295.911 227.51 294.771 229.766 293.573C232.016 292.37 234.24 291.12 236.432 289.813C238.62 288.505 240.781 287.146 242.906 285.734C245.031 284.318 247.12 282.854 249.172 281.339C251.224 279.823 253.24 278.26 255.219 276.646C257.193 275.036 259.13 273.375 261.026 271.667C262.922 269.958 264.771 268.203 266.583 266.406L257.214 256.698C253.917 260.031 250.469 263.198 246.854 266.188C243.245 269.177 239.495 271.984 235.604 274.599C231.714 277.219 227.703 279.635 223.568 281.849C219.438 284.068 215.203 286.073 210.87 287.865C206.536 289.656 202.125 291.234 197.635 292.583C193.141 293.938 188.594 295.068 183.99 295.964C179.385 296.865 174.75 297.531 170.078 297.969C165.411 298.406 160.729 298.609 156.036 298.578Z" fill="white"/>
<path d="M234.911 77.6247C233.63 76.3278 232.318 75.0622 230.974 73.8278C229.63 72.5934 228.255 71.3955 226.854 70.2288C225.448 69.0674 224.016 67.9372 222.557 66.8434C221.099 65.7497 219.615 64.6924 218.099 63.6716C216.589 62.6507 215.052 61.6663 213.495 60.7184C211.932 59.7757 210.349 58.8695 208.745 58.0049C207.135 57.1351 205.51 56.3122 203.865 55.5257C202.219 54.7393 200.552 53.9945 198.87 53.2913C197.188 52.5882 195.484 51.9268 193.771 51.307C192.052 50.6872 190.323 50.1091 188.578 49.5778C186.833 49.0413 185.073 48.5518 183.307 48.1038C181.536 47.6611 179.755 47.2549 177.969 46.8955C176.177 46.5413 174.38 46.2236 172.578 45.9528C170.771 45.6872 168.958 45.458 167.146 45.2809C165.328 45.0986 163.51 44.9632 161.688 44.8747C159.865 44.7809 158.042 44.7393 156.214 44.7393C154.391 44.7393 152.568 44.7809 150.745 44.8747C148.922 44.9632 147.099 45.0986 145.286 45.2809C143.469 45.458 141.656 45.6872 139.854 45.9528C138.047 46.2236 136.25 46.5413 134.464 46.8955C132.672 47.2549 130.891 47.6611 129.125 48.1038C127.354 48.5518 125.599 49.0413 123.849 49.5778C122.104 50.1091 120.375 50.6872 118.661 51.307C116.943 51.9268 115.245 52.5882 113.557 53.2913C111.875 53.9945 110.208 54.7393 108.563 55.5257C106.917 56.3122 105.292 57.1351 103.688 58.0049C102.078 58.8695 100.495 59.7757 98.9375 60.7184C97.375 61.6663 95.8385 62.6507 94.3281 63.6716C92.8125 64.6924 91.3281 65.7497 89.8698 66.8434C88.4115 67.9372 86.9792 69.0674 85.5729 70.2288C84.1719 71.3955 82.7969 72.5934 81.4531 73.8278C80.1094 75.0622 78.7969 76.3278 77.5156 77.6247C76.2344 78.9111 74.9792 80.2288 73.7604 81.5778C72.5365 82.9216 71.3542 84.3018 70.1979 85.708C69.0469 87.1091 67.9323 88.5466 66.849 90.0049C65.7656 91.4632 64.7188 92.9528 63.7135 94.4632C62.7031 95.9736 61.7292 97.5101 60.7969 99.0726C59.8646 100.63 58.9688 102.213 58.1146 103.817C57.2604 105.416 56.4427 107.041 55.6667 108.687C54.8906 110.328 54.1562 111.989 53.4635 113.666C52.7656 115.349 52.1146 117.041 51.5052 118.755C50.8906 120.468 50.3229 122.192 49.7969 123.932C49.2708 125.672 48.7865 127.422 48.349 129.182C47.9115 130.948 47.5104 132.718 47.1615 134.5C46.8073 136.286 46.5 138.073 46.2344 139.869C45.9687 141.672 45.75 143.474 45.5729 145.281C45.3958 147.088 45.2656 148.901 45.1771 150.713C45.0885 152.531 45.0469 154.343 45.0469 156.161C45.0521 157.979 45.099 159.797 45.1875 161.609C45.2812 163.422 45.4167 165.234 45.599 167.041C45.776 168.849 46 170.651 46.2708 172.448C46.5417 174.244 46.8542 176.036 47.2083 177.817C47.5677 179.599 47.9687 181.369 48.4115 183.135C48.8542 184.896 49.3437 186.646 49.875 188.385C50.4062 190.119 50.974 191.843 51.5938 193.557C52.2083 195.265 52.8646 196.958 53.5625 198.635C54.2604 200.312 55 201.974 55.776 203.614C56.5573 205.255 57.375 206.88 58.2344 208.479C59.0938 210.078 59.9948 211.661 60.9323 213.218C61.8698 214.776 62.8437 216.307 63.8542 217.817C64.8698 219.328 65.9167 220.812 67.0052 222.271C68.0885 223.729 69.2083 225.156 70.3646 226.562C71.5208 227.963 72.7083 229.338 73.9323 230.682C75.1563 232.026 76.4115 233.338 77.7031 234.625C78.9896 235.906 80.3073 237.156 81.6563 238.375C83.0052 239.593 84.3854 240.781 85.7917 241.932C87.1979 243.083 88.6354 244.198 90.099 245.276C91.5625 246.359 93.0469 247.401 94.5625 248.411C96.0781 249.416 97.6146 250.385 99.1771 251.317C100.74 252.25 102.323 253.146 103.927 254C105.531 254.854 107.156 255.672 108.802 256.442C110.448 257.218 112.109 257.953 113.792 258.646C115.474 259.338 117.172 259.989 118.885 260.604C120.599 261.213 122.328 261.781 124.068 262.307C125.813 262.828 127.563 263.312 129.328 263.75C131.094 264.192 132.87 264.588 134.656 264.937C136.438 265.291 138.229 265.599 140.031 265.864C141.833 266.13 143.635 266.349 145.448 266.526C147.26 266.703 149.073 266.833 150.891 266.922C152.708 267.005 154.526 267.052 156.344 267.047C158.161 267.047 159.979 267 161.797 266.906C163.615 266.817 165.427 266.682 167.24 266.5C169.052 266.317 170.854 266.093 172.656 265.828C174.453 265.557 176.245 265.244 178.031 264.89C179.813 264.531 181.589 264.13 183.349 263.687C185.115 263.244 186.87 262.76 188.609 262.229C190.349 261.698 192.073 261.13 193.786 260.515C195.5 259.901 197.193 259.244 198.875 258.547C200.557 257.849 202.219 257.114 203.859 256.333C205.505 255.557 207.13 254.734 208.729 253.88C210.333 253.021 211.917 252.125 213.474 251.187C215.036 250.25 216.573 249.276 218.083 248.265C219.594 247.255 221.078 246.208 222.542 245.125C224 244.041 225.432 242.922 226.839 241.765C228.24 240.609 229.62 239.422 230.964 238.203C232.313 236.979 233.625 235.729 234.911 234.442L225.526 225.406C224.391 226.552 223.229 227.666 222.042 228.755C220.854 229.843 219.635 230.901 218.396 231.932C217.156 232.958 215.891 233.953 214.599 234.922C213.307 235.885 211.995 236.823 210.656 237.724C209.318 238.625 207.964 239.489 206.583 240.323C205.203 241.156 203.802 241.958 202.385 242.724C200.964 243.489 199.526 244.218 198.073 244.911C196.615 245.609 195.146 246.265 193.656 246.89C192.172 247.51 190.667 248.093 189.151 248.646C187.635 249.192 186.104 249.703 184.563 250.177C183.021 250.651 181.469 251.083 179.906 251.479C178.344 251.875 176.771 252.234 175.193 252.552C173.609 252.869 172.021 253.151 170.427 253.39C168.833 253.635 167.234 253.833 165.63 253.994C164.026 254.156 162.417 254.281 160.807 254.364C159.193 254.448 157.583 254.489 155.969 254.494C154.359 254.494 152.745 254.463 151.135 254.385C149.521 254.307 147.917 254.192 146.307 254.041C144.703 253.885 143.104 253.687 141.51 253.453C139.911 253.224 138.323 252.948 136.74 252.635C135.161 252.323 133.583 251.974 132.021 251.583C130.453 251.192 128.901 250.765 127.359 250.302C125.813 249.833 124.281 249.333 122.766 248.791C121.245 248.25 119.74 247.672 118.25 247.052C116.76 246.437 115.286 245.786 113.828 245.099C112.37 244.411 110.927 243.687 109.505 242.927C108.083 242.166 106.682 241.375 105.297 240.547C103.911 239.718 102.552 238.854 101.208 237.958C99.8698 237.067 98.5521 236.135 97.2552 235.177C95.9635 234.218 94.6927 233.224 93.4479 232.203C92.1979 231.182 90.9792 230.13 89.7865 229.047C88.5938 227.963 87.4271 226.849 86.2865 225.708C85.1458 224.573 84.0365 223.401 82.9531 222.208C81.875 221.015 80.8229 219.791 79.8021 218.547C78.7813 217.297 77.7917 216.026 76.8333 214.734C75.875 213.437 74.9479 212.119 74.0521 210.776C73.1615 209.437 72.3021 208.073 71.474 206.692C70.651 205.307 69.8594 203.906 69.099 202.484C68.3438 201.062 67.625 199.619 66.9375 198.161C66.25 196.703 65.6042 195.229 64.9896 193.739C64.375 192.25 63.8021 190.75 63.2604 189.229C62.724 187.713 62.224 186.182 61.7604 184.64C61.2969 183.093 60.8698 181.541 60.4844 179.979C60.099 178.416 59.75 176.843 59.4427 175.26C59.1354 173.682 58.8646 172.093 58.6354 170.5C58.401 168.906 58.2135 167.307 58.0625 165.703C57.9062 164.099 57.7969 162.494 57.724 160.885C57.651 159.276 57.6198 157.666 57.625 156.052C57.6354 154.442 57.6823 152.833 57.7656 151.224C57.8542 149.619 57.9792 148.01 58.1458 146.411C58.3125 144.807 58.5208 143.213 58.7656 141.619C59.0104 140.026 59.2917 138.442 59.6146 136.864C59.9375 135.286 60.3021 133.718 60.7031 132.156C61.1042 130.599 61.5417 129.047 62.0156 127.51C62.4948 125.968 63.0104 124.442 63.5625 122.932C64.1146 121.416 64.7031 119.916 65.3281 118.437C65.9583 116.953 66.6198 115.484 67.3177 114.031C68.0156 112.578 68.75 111.146 69.5208 109.729C70.2917 108.317 71.0938 106.922 71.9323 105.541C72.7708 104.166 73.6458 102.812 74.5521 101.479C75.4531 100.146 76.3906 98.8382 77.3646 97.5518C78.3333 96.2653 79.3333 95.0049 80.3646 93.7653C81.401 92.5257 82.4635 91.3174 83.5521 90.1299C84.6458 88.9476 85.7656 87.7913 86.9167 86.6611C88.0521 85.5309 89.2135 84.4268 90.4063 83.3538C91.5938 82.2809 92.8125 81.2393 94.0521 80.2236C95.2917 79.2132 96.5573 78.2288 97.849 77.2809C99.1354 76.3278 100.448 75.4059 101.781 74.5205C103.115 73.6351 104.474 72.7809 105.849 71.958C107.224 71.1351 108.62 70.3486 110.036 69.5986C111.448 68.8434 112.88 68.1247 114.333 67.4424C115.781 66.7601 117.25 66.1143 118.729 65.4997C120.214 64.8903 121.708 64.3174 123.219 63.7809C124.729 63.2393 126.25 62.7393 127.786 62.2757C129.318 61.8122 130.865 61.3851 132.417 60.9997C133.974 60.6091 135.536 60.2601 137.109 59.9476C138.682 59.6403 140.26 59.3643 141.849 59.1299C143.432 58.8955 145.026 58.7028 146.62 58.5465C148.214 58.3903 149.813 58.2705 151.417 58.1924C153.016 58.1143 154.62 58.0726 156.224 58.0726C157.823 58.0726 159.427 58.1143 161.026 58.1924C162.63 58.2705 164.229 58.3903 165.823 58.5465C167.417 58.7028 169.01 58.8955 170.594 59.1299C172.182 59.3643 173.76 59.6403 175.333 59.9476C176.906 60.2601 178.469 60.6091 180.026 60.9997C181.578 61.3851 183.125 61.8122 184.661 62.2757C186.193 62.7393 187.714 63.2393 189.224 63.7809C190.734 64.3174 192.229 64.8903 193.714 65.4997C195.193 66.1143 196.661 66.7601 198.109 67.4424C199.563 68.1247 200.995 68.8434 202.406 69.5986C203.823 70.3486 205.219 71.1351 206.594 71.958C207.969 72.7809 209.328 73.6351 210.661 74.5205C211.995 75.4059 213.307 76.3278 214.594 77.2809C215.885 78.2288 217.151 79.2132 218.391 80.2236C219.63 81.2393 220.849 82.2809 222.036 83.3538C223.229 84.4268 224.391 85.5309 225.526 86.6611L234.911 77.6247Z" fill="white"/>
<path d="M203.214 108.667C201.651 107.151 200.026 105.714 198.328 104.354C196.63 102.995 194.87 101.719 193.052 100.531C191.229 99.3438 189.354 98.2448 187.427 97.2344C185.5 96.2292 183.531 95.3125 181.516 94.4948C179.5 93.6771 177.453 92.9583 175.365 92.3385C173.281 91.7187 171.172 91.1979 169.037 90.7813C166.901 90.3646 164.75 90.0521 162.584 89.8438C160.422 89.6354 158.25 89.5312 156.073 89.5312C153.901 89.5312 151.729 89.6354 149.563 89.8438C147.396 90.0521 145.25 90.3646 143.115 90.7813C140.979 91.1979 138.87 91.7187 136.781 92.3385C134.698 92.9583 132.646 93.6771 130.636 94.4948C128.62 95.3125 126.646 96.2292 124.719 97.2344C122.792 98.2448 120.917 99.3438 119.099 100.531C117.276 101.719 115.521 102.995 113.823 104.354C112.125 105.714 110.495 107.151 108.938 108.667C106.625 110.984 104.5 113.458 102.552 116.089C100.61 118.719 98.87 121.479 97.3283 124.365C95.7918 127.255 94.4689 130.234 93.37 133.318C92.271 136.396 91.4064 139.542 90.771 142.75C90.1356 145.958 89.7345 149.198 89.5783 152.464C89.4168 155.729 89.5002 158.99 89.8179 162.245C90.1408 165.5 90.6981 168.714 91.495 171.885C92.2866 175.057 93.3127 178.156 94.5627 181.177C95.8127 184.203 97.2762 187.115 98.9585 189.922C100.641 192.729 102.516 195.401 104.589 197.932C106.662 200.464 108.912 202.828 111.334 205.031C113.755 207.229 116.323 209.245 119.042 211.068C121.761 212.891 124.599 214.505 127.557 215.911C130.511 217.318 133.557 218.5 136.688 219.458C139.818 220.422 143 221.146 146.24 221.635C149.479 222.13 152.735 222.38 156.011 222.396C160.401 222.417 164.75 222.005 169.057 221.156C173.37 220.307 177.552 219.036 181.604 217.344C185.656 215.656 189.5 213.583 193.136 211.12C196.771 208.656 200.125 205.859 203.198 202.724L194.094 193.703C192.839 194.922 191.526 196.073 190.162 197.161C188.797 198.255 187.38 199.276 185.917 200.229C184.453 201.182 182.943 202.063 181.396 202.87C179.844 203.677 178.261 204.411 176.641 205.068C175.021 205.724 173.37 206.302 171.698 206.797C170.021 207.292 168.323 207.708 166.61 208.042C164.891 208.38 163.167 208.63 161.422 208.797C159.682 208.964 157.943 209.047 156.193 209.047C154.443 209.047 152.698 208.964 150.959 208.797C149.219 208.63 147.49 208.38 145.776 208.042C144.057 207.708 142.365 207.292 140.688 206.797C139.011 206.302 137.365 205.724 135.745 205.068C134.125 204.411 132.542 203.677 130.99 202.87C129.443 202.063 127.932 201.182 126.469 200.229C125.005 199.276 123.589 198.255 122.224 197.161C120.86 196.073 119.547 194.922 118.292 193.703C117.057 192.464 115.886 191.167 114.776 189.813C113.672 188.458 112.63 187.052 111.662 185.594C110.693 184.135 109.797 182.635 108.974 181.094C108.156 179.547 107.412 177.964 106.745 176.349C106.078 174.729 105.495 173.083 104.99 171.411C104.485 169.734 104.068 168.036 103.729 166.323C103.391 164.604 103.141 162.875 102.974 161.135C102.802 159.396 102.724 157.651 102.729 155.901C102.735 154.151 102.823 152.406 103 150.667C103.177 148.927 103.438 147.198 103.781 145.484C104.13 143.771 104.557 142.073 105.073 140.401C105.584 138.729 106.177 137.089 106.854 135.474C107.526 133.859 108.281 132.281 109.11 130.74C109.938 129.198 110.844 127.703 111.818 126.25C112.797 124.802 113.844 123.401 114.959 122.052C116.073 120.703 117.25 119.411 118.49 118.177C119.735 116.943 121.031 115.771 122.391 114.667C123.745 113.563 125.151 112.526 126.615 111.557C128.073 110.589 129.573 109.693 131.12 108.875C132.667 108.052 134.25 107.313 135.87 106.646C137.49 105.979 139.141 105.396 140.818 104.891C142.495 104.391 144.193 103.969 145.912 103.63C147.63 103.297 149.36 103.042 151.104 102.875C152.849 102.708 154.594 102.63 156.349 102.635C158.099 102.635 159.844 102.729 161.589 102.906C163.334 103.078 165.063 103.344 166.776 103.688C168.495 104.031 170.193 104.464 171.865 104.974C173.542 105.484 175.188 106.078 176.802 106.75C178.417 107.427 180 108.177 181.542 109.005C183.084 109.833 184.584 110.734 186.037 111.714C187.49 112.688 188.891 113.734 190.24 114.844C191.594 115.958 192.886 117.135 194.12 118.375L203.214 108.667Z" fill="white"/>
<path d="M165.558 146.578C165.865 146.885 166.203 147.156 166.563 147.396C166.927 147.635 167.308 147.833 167.714 148C168.115 148.161 168.532 148.286 168.953 148.37C169.381 148.453 169.813 148.5 170.245 148.5C170.683 148.5 171.115 148.453 171.542 148.37C171.964 148.286 172.381 148.161 172.782 148C173.183 147.833 173.568 147.635 173.933 147.396C174.292 147.156 174.631 146.885 174.938 146.578C175.24 146.276 175.511 145.943 175.75 145.589C175.985 145.229 176.188 144.854 176.349 144.458C176.511 144.063 176.636 143.651 176.719 143.234C176.802 142.813 176.844 142.391 176.844 141.958C176.844 141.531 176.802 141.109 176.719 140.688C176.636 140.266 176.511 139.859 176.349 139.464C176.188 139.068 175.985 138.688 175.75 138.333C175.511 137.974 175.24 137.646 174.938 137.339C174.016 136.432 173.032 135.599 171.99 134.839C170.943 134.073 169.849 133.391 168.703 132.786C167.558 132.182 166.375 131.661 165.157 131.229C163.938 130.797 162.693 130.458 161.422 130.208C160.151 129.953 158.87 129.797 157.578 129.734C156.287 129.667 154.995 129.698 153.709 129.818C152.417 129.943 151.146 130.156 149.886 130.464C148.631 130.771 147.401 131.167 146.203 131.656C145.006 132.141 143.844 132.708 142.73 133.365C141.615 134.021 140.547 134.75 139.542 135.557C138.532 136.37 137.584 137.245 136.703 138.193C135.823 139.141 135.011 140.146 134.276 141.208C133.542 142.271 132.886 143.385 132.313 144.542C131.74 145.703 131.256 146.896 130.855 148.125C130.453 149.354 130.146 150.609 129.933 151.88C129.714 153.156 129.589 154.438 129.563 155.729C129.537 157.49 129.693 159.234 130.032 160.958C130.37 162.682 130.881 164.359 131.568 165.974C132.256 167.594 133.099 169.13 134.105 170.573C135.11 172.016 136.25 173.344 137.532 174.547C139.969 177.042 142.782 178.984 145.98 180.37C149.177 181.76 152.521 182.495 156.011 182.568C157.766 182.552 159.511 182.365 161.23 182.005C162.953 181.651 164.625 181.13 166.245 180.443C167.865 179.755 169.401 178.922 170.86 177.932C172.313 176.948 173.662 175.828 174.896 174.578C175.198 174.286 175.464 173.964 175.698 173.615C175.938 173.271 176.136 172.901 176.297 172.516C176.464 172.125 176.584 171.729 176.667 171.318C176.75 170.906 176.792 170.49 176.792 170.068C176.792 169.651 176.75 169.234 176.667 168.823C176.584 168.411 176.464 168.01 176.297 167.625C176.136 167.234 175.938 166.87 175.698 166.521C175.464 166.172 175.198 165.854 174.896 165.557C174.605 165.219 174.282 164.917 173.927 164.651C173.573 164.38 173.193 164.156 172.787 163.969C172.381 163.781 171.959 163.641 171.526 163.547C171.089 163.448 170.651 163.401 170.203 163.401C169.756 163.401 169.318 163.448 168.881 163.547C168.448 163.641 168.026 163.781 167.62 163.969C167.214 164.156 166.834 164.38 166.48 164.651C166.125 164.917 165.802 165.219 165.511 165.557C164.193 166.708 162.719 167.599 161.084 168.234C159.453 168.865 157.761 169.198 156.011 169.229C154.318 169.146 152.693 168.786 151.125 168.156C149.563 167.521 148.141 166.646 146.875 165.531C146.23 164.922 145.657 164.255 145.151 163.526C144.641 162.802 144.214 162.031 143.865 161.219C143.516 160.406 143.25 159.563 143.073 158.698C142.896 157.828 142.802 156.953 142.802 156.068C142.802 155.182 142.896 154.307 143.073 153.443C143.25 152.573 143.516 151.734 143.865 150.922C144.214 150.109 144.641 149.339 145.151 148.615C145.657 147.885 146.23 147.219 146.875 146.609C147.485 145.995 148.157 145.453 148.875 144.969C149.594 144.49 150.355 144.083 151.157 143.75C151.959 143.422 152.782 143.167 153.631 143C154.485 142.828 155.344 142.745 156.209 142.745C157.073 142.74 157.933 142.823 158.787 142.99C159.636 143.156 160.459 143.406 161.261 143.734C162.063 144.063 162.828 144.469 163.547 144.948C164.271 145.427 164.938 145.969 165.558 146.578Z" fill="white"/>
</svg>
