<svg width="276" height="313" viewBox="0 0 276 313" fill="none" xmlns="http://www.w3.org/2000/svg">
<path d="M156.781 299.505C152.104 299.542 147.432 299.344 142.776 298.912C138.114 298.474 133.489 297.813 128.901 296.912C124.307 296.016 119.771 294.891 115.292 293.537C110.818 292.182 106.417 290.604 102.099 288.807C97.7759 287.011 93.5623 285.005 89.4425 282.781C85.328 280.563 81.3332 278.141 77.4582 275.521C73.5832 272.896 69.854 270.089 66.2655 267.089C62.6769 264.089 59.2446 260.922 55.9738 257.578C52.6405 254.292 49.4738 250.844 46.479 247.24C43.4842 243.636 40.6821 239.891 38.0623 236.005C35.4425 232.125 33.0259 228.12 30.8071 223.995C28.5884 219.87 26.5832 215.641 24.7863 211.318C22.9894 206.99 21.4165 202.589 20.0623 198.104C18.703 193.62 17.578 189.084 16.6769 184.49C15.7759 179.891 15.104 175.266 14.6665 170.604C14.229 165.938 14.0259 161.266 14.0519 156.584C14.0571 151.906 14.2915 147.24 14.755 142.584C15.2186 137.927 15.9061 133.302 16.8228 128.714C17.7394 124.125 18.88 119.594 20.2394 115.12C21.604 110.641 23.1821 106.24 24.9738 101.917C26.7655 97.5939 28.7707 93.37 30.979 89.245C33.1873 85.12 35.5884 81.1095 38.1925 77.2189C40.7967 73.3283 43.5832 69.5731 46.5519 65.9533C49.5259 62.3387 52.6665 58.8752 55.9738 55.5627C57.6353 53.922 59.3332 52.3231 61.0675 50.7658C62.8071 49.2085 64.578 47.6929 66.3905 46.2189C68.1978 44.7502 70.0467 43.3231 71.9269 41.9429C73.8071 40.5575 75.7186 39.2241 77.6665 37.9377C79.6092 36.646 81.5832 35.4064 83.5936 34.2137C85.5988 33.021 87.63 31.8804 89.6925 30.7866C91.755 29.6929 93.8436 28.6512 95.9582 27.6616C98.0675 26.672 100.203 25.7293 102.364 24.8439C104.521 23.9585 106.703 23.1252 108.901 22.3439C111.099 21.5627 113.318 20.8335 115.552 20.1616C117.786 19.4897 120.036 18.87 122.302 18.3075C124.568 17.745 126.849 17.2345 129.135 16.7866C131.427 16.3335 133.724 15.9377 136.036 15.5939C138.344 15.2554 140.661 14.9741 142.984 14.745C145.307 14.5158 147.635 14.3491 149.969 14.2345C152.297 14.12 154.63 14.0627 156.969 14.0627C159.302 14.0627 161.635 14.12 163.963 14.2345C166.297 14.3491 168.625 14.5158 170.948 14.745C173.271 14.9741 175.588 15.2554 177.896 15.5939C180.208 15.9377 182.505 16.3335 184.797 16.7866C187.088 17.2345 189.364 17.745 191.63 18.3075C193.896 18.87 196.146 19.4897 198.38 20.1616C200.614 20.8335 202.833 21.5627 205.031 22.3439C207.229 23.12 209.411 23.9585 211.568 24.8439C213.729 25.7293 215.864 26.672 217.974 27.6616C220.088 28.6512 222.177 29.6929 224.239 30.7866C226.302 31.8804 228.333 33.021 230.338 34.2137C232.349 35.4064 234.323 36.646 236.271 37.9377C238.213 39.2241 240.125 40.5575 242.005 41.9429C243.885 43.3231 245.734 44.7502 247.542 46.2189C249.354 47.6929 251.125 49.2085 252.864 50.7658C254.599 52.3231 256.297 53.922 257.958 55.5627L267.328 46.5262C265.515 44.7241 263.667 42.9637 261.771 41.2554C259.875 39.5418 257.937 37.8752 255.958 36.2554C253.979 34.6408 251.963 33.0679 249.911 31.5522C247.854 30.0314 245.765 28.5627 243.64 27.146C241.51 25.7293 239.349 24.3647 237.156 23.0575C234.963 21.745 232.739 20.4897 230.484 19.2866C228.229 18.0835 225.943 16.9377 223.63 15.8491C221.318 14.7606 218.979 13.7293 216.62 12.7554C214.255 11.7762 211.87 10.8595 209.463 10.0054C207.057 9.146 204.63 8.34912 202.182 7.60954C199.734 6.86996 197.271 6.18766 194.792 5.57308C192.307 4.95329 189.812 4.396 187.307 3.9012C184.797 3.40641 182.281 2.96891 179.75 2.59912C177.224 2.22412 174.687 1.91683 172.14 1.66683C169.599 1.41683 167.047 1.23454 164.495 1.10954C161.943 0.984538 159.385 0.927246 156.828 0.927246C154.271 0.932455 151.719 0.994954 149.161 1.11995C146.609 1.25016 144.062 1.43766 141.515 1.69287C138.974 1.94287 136.437 2.26058 133.911 2.63558C131.38 3.01058 128.864 3.44808 126.354 3.95329C123.849 4.45329 121.354 5.01058 118.875 5.63558C116.396 6.25537 113.932 6.93766 111.489 7.68245C109.042 8.42725 106.614 9.22933 104.208 10.0887C101.802 10.9533 99.4217 11.8752 97.0571 12.8543C94.6978 13.8335 92.3592 14.87 90.0519 15.9637C87.7394 17.0522 85.4582 18.2033 83.2082 19.4116C80.953 20.6147 78.729 21.8752 76.5363 23.1877C74.3436 24.5054 72.1873 25.87 70.0623 27.2918C67.9373 28.7137 65.8488 30.1825 63.7967 31.7033C61.7446 33.2293 59.7342 34.8022 57.755 36.422C55.7811 38.0418 53.8488 39.7137 51.9582 41.4272C50.0623 43.146 48.2134 44.9064 46.4061 46.7137C44.5988 48.521 42.8384 50.37 41.1248 52.2606C39.4113 54.1564 37.7394 56.0887 36.1196 58.0627C34.4998 60.0366 32.9321 62.0522 31.4113 64.1043C29.8905 66.1564 28.4165 68.245 26.9998 70.37C25.5832 72.4897 24.2134 74.6512 22.9009 76.8387C21.5884 79.0314 20.3332 81.2554 19.13 83.5054C17.9269 85.7606 16.7811 88.0418 15.6873 90.3491C14.5988 92.6564 13.5623 94.9897 12.5884 97.3491C11.6092 99.7085 10.6925 102.094 9.83317 104.495C8.9738 106.901 8.17171 109.328 7.43213 111.771C6.69255 114.214 6.01546 116.672 5.39567 119.151C4.77588 121.63 4.21859 124.12 3.7238 126.625C3.2238 129.13 2.7915 131.641 2.4165 134.167C2.0415 136.693 1.73421 139.229 1.48421 141.771C1.23421 144.307 1.05192 146.854 0.926921 149.406C0.801921 151.953 0.744629 154.505 0.744629 157.063C0.749837 159.615 0.812337 162.167 0.937337 164.714C1.06755 167.266 1.25505 169.813 1.51025 172.349C1.76546 174.891 2.07796 177.422 2.45296 179.948C2.83317 182.474 3.27067 184.99 3.77067 187.495C4.27067 189.995 4.83317 192.485 5.45817 194.964C6.08317 197.438 6.76546 199.896 7.51025 202.339C8.25505 204.781 9.05713 207.203 9.92171 209.61C10.7863 212.011 11.7082 214.391 12.6873 216.75C13.6665 219.11 14.703 221.443 15.7967 223.75C16.8957 226.052 18.0467 228.334 19.2498 230.584C20.4582 232.834 21.7186 235.052 23.0363 237.245C24.354 239.432 25.7238 241.589 27.1457 243.709C28.5675 245.828 30.0415 247.917 31.5623 249.964C33.0884 252.016 34.6613 254.026 36.2863 256C37.9113 257.969 39.5832 259.901 41.3019 261.792C43.0155 263.682 44.7811 265.531 46.5936 267.334C48.4009 269.13 50.255 270.886 52.1457 272.594C54.0415 274.302 55.979 275.964 57.953 277.573C59.9321 279.188 61.9478 280.75 63.9998 282.266C66.0519 283.781 68.1405 285.245 70.2655 286.662C72.3905 288.073 74.5519 289.432 76.7446 290.74C78.9321 292.047 81.1561 293.297 83.4113 294.5C85.6613 295.698 87.9425 296.839 90.255 297.927C92.5623 299.016 94.8957 300.042 97.255 301.016C99.6144 301.99 102 302.906 104.401 303.761C106.807 304.615 109.229 305.412 111.677 306.151C114.12 306.891 116.578 307.568 119.057 308.188C121.531 308.802 124.021 309.36 126.526 309.854C129.031 310.354 131.547 310.787 134.073 311.162C136.594 311.531 139.13 311.844 141.672 312.094C144.208 312.344 146.755 312.531 149.307 312.651C151.854 312.776 154.406 312.839 156.958 312.839C159.51 312.839 162.062 312.776 164.614 312.651C167.161 312.531 169.708 312.344 172.25 312.094C174.786 311.844 177.323 311.531 179.849 311.162C182.375 310.787 184.885 310.354 187.39 309.854C189.896 309.36 192.385 308.802 194.864 308.188C197.338 307.568 199.802 306.891 202.245 306.151C204.687 305.412 207.109 304.615 209.515 303.761C211.922 302.906 214.302 301.99 216.661 301.016C219.021 300.042 221.354 299.016 223.667 297.927C225.974 296.839 228.255 295.698 230.51 294.5C232.76 293.297 234.984 292.047 237.177 290.74C239.364 289.432 241.526 288.073 243.651 286.662C245.776 285.245 247.864 283.781 249.917 282.266C251.969 280.75 253.984 279.188 255.963 277.573C257.937 275.964 259.875 274.302 261.771 272.594C263.667 270.886 265.515 269.13 267.328 267.334L257.958 257.625C254.661 260.959 251.213 264.125 247.599 267.115C243.989 270.104 240.239 272.912 236.349 275.526C232.458 278.146 228.448 280.563 224.312 282.776C220.182 284.995 215.948 287 211.614 288.792C207.281 290.584 202.87 292.162 198.38 293.511C193.885 294.865 189.338 295.995 184.734 296.891C180.13 297.792 175.495 298.459 170.823 298.896C166.156 299.334 161.474 299.537 156.781 299.505Z" fill="white"/>
<path d="M235.656 78.5519C234.375 77.255 233.062 75.9894 231.719 74.755C230.375 73.5207 229 72.3228 227.599 71.1561C226.193 69.9946 224.76 68.8644 223.302 67.7707C221.844 66.6769 220.359 65.6196 218.844 64.5988C217.333 63.578 215.797 62.5936 214.239 61.6457C212.677 60.703 211.094 59.7967 209.489 58.9321C207.88 58.0623 206.255 57.2394 204.609 56.453C202.963 55.6665 201.297 54.9217 199.614 54.2186C197.932 53.5155 196.229 52.854 194.515 52.2342C192.797 51.6144 191.068 51.0363 189.323 50.505C187.578 49.9686 185.818 49.479 184.052 49.0311C182.281 48.5884 180.5 48.1821 178.713 47.8228C176.922 47.4686 175.125 47.1509 173.323 46.88C171.515 46.6144 169.703 46.3853 167.89 46.2082C166.073 46.0259 164.255 45.8905 162.432 45.8019C160.609 45.7082 158.786 45.6665 156.958 45.6665C155.135 45.6665 153.312 45.7082 151.489 45.8019C149.667 45.8905 147.844 46.0259 146.031 46.2082C144.213 46.3853 142.401 46.6144 140.599 46.88C138.792 47.1509 136.995 47.4686 135.208 47.8228C133.417 48.1821 131.635 48.5884 129.87 49.0311C128.099 49.479 126.344 49.9686 124.594 50.505C122.849 51.0363 121.12 51.6144 119.406 52.2342C117.687 52.854 115.989 53.5155 114.302 54.2186C112.62 54.9217 110.953 55.6665 109.307 56.453C107.661 57.2394 106.036 58.0623 104.432 58.9321C102.823 59.7967 101.239 60.703 99.6821 61.6457C98.1196 62.5936 96.5832 63.578 95.0728 64.5988C93.5571 65.6196 92.0728 66.6769 90.6144 67.7707C89.1561 68.8644 87.7238 69.9946 86.3175 71.1561C84.9165 72.3228 83.5415 73.5207 82.1978 74.755C80.854 75.9894 79.5415 77.255 78.2603 78.5519C76.979 79.8384 75.7238 81.1561 74.505 82.505C73.2811 83.8488 72.0988 85.229 70.9425 86.6353C69.7915 88.0363 68.6769 89.4738 67.5936 90.9321C66.5103 92.3905 65.4634 93.88 64.4582 95.3905C63.4478 96.9009 62.4738 98.4373 61.5415 99.9998C60.6092 101.557 59.7134 103.14 58.8592 104.745C58.005 106.344 57.1873 107.969 56.4113 109.614C55.6353 111.255 54.9009 112.917 54.2082 114.594C53.5103 116.276 52.8592 117.969 52.2498 119.682C51.6353 121.396 51.0675 123.12 50.5415 124.859C50.0155 126.599 49.5311 128.349 49.0936 130.109C48.6561 131.875 48.255 133.646 47.9061 135.427C47.5519 137.213 47.2446 139 46.979 140.797C46.7134 142.599 46.4946 144.401 46.3175 146.208C46.1405 148.015 46.0103 149.828 45.9217 151.64C45.8332 153.458 45.7915 155.271 45.7915 157.088C45.7967 158.906 45.8436 160.724 45.9321 162.536C46.0259 164.349 46.1613 166.161 46.3436 167.969C46.5207 169.776 46.7446 171.578 47.0155 173.375C47.2863 175.172 47.5988 176.963 47.953 178.745C48.3123 180.526 48.7134 182.297 49.1561 184.062C49.5988 185.823 50.0884 187.573 50.6196 189.312C51.1509 191.047 51.7186 192.771 52.3384 194.484C52.953 196.193 53.6092 197.885 54.3071 199.562C55.005 201.239 55.7446 202.901 56.5207 204.542C57.3019 206.182 58.1196 207.807 58.979 209.406C59.8384 211.005 60.7394 212.588 61.6769 214.146C62.6144 215.703 63.5884 217.234 64.5988 218.745C65.6144 220.255 66.6613 221.739 67.7498 223.198C68.8332 224.656 69.953 226.083 71.1092 227.489C72.2655 228.89 73.453 230.265 74.6769 231.609C75.9009 232.953 77.1561 234.265 78.4478 235.552C79.7342 236.833 81.0519 238.083 82.4009 239.302C83.7498 240.521 85.13 241.708 86.5363 242.859C87.9425 244.01 89.38 245.125 90.8436 246.203C92.3071 247.286 93.7915 248.328 95.3071 249.338C96.8228 250.344 98.3592 251.312 99.9217 252.245C101.484 253.177 103.068 254.073 104.672 254.927C106.276 255.781 107.901 256.599 109.547 257.37C111.193 258.146 112.854 258.88 114.536 259.573C116.219 260.265 117.917 260.917 119.63 261.531C121.344 262.14 123.073 262.708 124.812 263.234C126.557 263.755 128.307 264.239 130.073 264.677C131.838 265.12 133.614 265.515 135.401 265.864C137.182 266.219 138.974 266.526 140.776 266.792C142.578 267.057 144.38 267.276 146.193 267.453C148.005 267.63 149.818 267.76 151.635 267.849C153.453 267.932 155.271 267.979 157.088 267.974C158.906 267.974 160.724 267.927 162.542 267.833C164.359 267.745 166.172 267.609 167.984 267.427C169.797 267.245 171.599 267.021 173.401 266.755C175.198 266.484 176.989 266.172 178.776 265.818C180.557 265.458 182.333 265.057 184.094 264.614C185.859 264.172 187.614 263.687 189.354 263.156C191.094 262.625 192.818 262.057 194.531 261.443C196.245 260.828 197.937 260.172 199.62 259.474C201.302 258.776 202.963 258.042 204.604 257.26C206.25 256.484 207.875 255.661 209.474 254.807C211.078 253.948 212.661 253.052 214.219 252.114C215.781 251.177 217.318 250.203 218.828 249.193C220.338 248.182 221.823 247.135 223.286 246.052C224.745 244.969 226.177 243.849 227.583 242.693C228.984 241.536 230.364 240.349 231.708 239.13C233.057 237.906 234.37 236.656 235.656 235.37L226.271 226.333C225.135 227.479 223.974 228.594 222.786 229.682C221.599 230.771 220.38 231.828 219.14 232.859C217.901 233.885 216.635 234.88 215.344 235.849C214.052 236.812 212.739 237.75 211.401 238.651C210.062 239.552 208.708 240.417 207.328 241.25C205.948 242.083 204.547 242.885 203.13 243.651C201.708 244.417 200.271 245.146 198.818 245.838C197.359 246.536 195.89 247.193 194.401 247.818C192.917 248.437 191.411 249.021 189.896 249.573C188.38 250.12 186.849 250.63 185.307 251.104C183.765 251.578 182.213 252.01 180.651 252.406C179.088 252.802 177.515 253.161 175.937 253.479C174.354 253.797 172.765 254.078 171.172 254.318C169.578 254.562 167.979 254.76 166.375 254.922C164.771 255.083 163.161 255.208 161.552 255.292C159.937 255.375 158.328 255.417 156.713 255.422C155.104 255.422 153.489 255.39 151.88 255.312C150.265 255.234 148.661 255.12 147.052 254.969C145.448 254.812 143.849 254.614 142.255 254.38C140.656 254.151 139.068 253.875 137.484 253.562C135.906 253.25 134.328 252.901 132.765 252.51C131.198 252.12 129.646 251.693 128.104 251.229C126.557 250.76 125.026 250.26 123.51 249.719C121.989 249.177 120.484 248.599 118.995 247.979C117.505 247.364 116.031 246.713 114.573 246.026C113.114 245.338 111.672 244.614 110.25 243.854C108.828 243.094 107.427 242.302 106.042 241.474C104.656 240.646 103.297 239.781 101.953 238.885C100.614 237.995 99.2967 237.062 97.9998 236.104C96.7082 235.146 95.4373 234.151 94.1925 233.13C92.9425 232.109 91.7238 231.057 90.5311 229.974C89.3384 228.89 88.1717 227.776 87.0311 226.635C85.8905 225.5 84.7811 224.328 83.6978 223.135C82.6196 221.943 81.5675 220.719 80.5467 219.474C79.5259 218.224 78.5363 216.953 77.578 215.661C76.6196 214.364 75.6925 213.047 74.7967 211.703C73.9061 210.364 73.0467 209 72.2186 207.62C71.3957 206.234 70.604 204.833 69.8436 203.411C69.0884 201.989 68.3696 200.547 67.6821 199.088C66.9946 197.63 66.3488 196.156 65.7342 194.667C65.1196 193.177 64.5467 191.677 64.005 190.156C63.4686 188.64 62.9686 187.109 62.505 185.568C62.0415 184.021 61.6144 182.469 61.229 180.906C60.8436 179.344 60.4946 177.771 60.1873 176.187C59.88 174.609 59.6092 173.021 59.38 171.427C59.1457 169.833 58.9582 168.234 58.8071 166.63C58.6509 165.026 58.5415 163.422 58.4686 161.812C58.3957 160.203 58.3644 158.594 58.3696 156.979C58.38 155.37 58.4269 153.76 58.5103 152.151C58.5988 150.547 58.7238 148.937 58.8905 147.338C59.0571 145.734 59.2655 144.14 59.5103 142.547C59.755 140.953 60.0363 139.37 60.3592 137.792C60.6821 136.213 61.0467 134.646 61.4478 133.083C61.8488 131.526 62.2863 129.974 62.7603 128.437C63.2394 126.896 63.755 125.37 64.3071 123.859C64.8592 122.344 65.4478 120.844 66.0728 119.364C66.703 117.88 67.3644 116.411 68.0623 114.958C68.7603 113.505 69.4946 112.073 70.2655 110.656C71.0363 109.245 71.8384 107.849 72.6769 106.469C73.5155 105.094 74.3905 103.739 75.2967 102.406C76.1978 101.073 77.1353 99.7655 78.1092 98.479C79.078 97.1925 80.078 95.9321 81.1092 94.6925C82.1457 93.453 83.2082 92.2446 84.2967 91.0571C85.3905 89.8748 86.5103 88.7186 87.6613 87.5884C88.7967 86.4582 89.9582 85.354 91.1509 84.2811C92.3384 83.2082 93.5571 82.1665 94.7967 81.1509C96.0363 80.1405 97.3019 79.1561 98.5936 78.2082C99.88 77.255 101.193 76.3332 102.526 75.4478C103.859 74.5623 105.219 73.7082 106.594 72.8853C107.969 72.0623 109.364 71.2759 110.781 70.5259C112.193 69.7707 113.625 69.0519 115.078 68.3696C116.526 67.6873 117.995 67.0415 119.474 66.4269C120.958 65.8175 122.453 65.2446 123.963 64.7082C125.474 64.1665 126.995 63.6665 128.531 63.203C130.062 62.7394 131.609 62.3123 133.161 61.9269C134.719 61.5363 136.281 61.1873 137.854 60.8748C139.427 60.5675 141.005 60.2915 142.594 60.0571C144.177 59.8228 145.771 59.63 147.364 59.4738C148.958 59.3175 150.557 59.1978 152.161 59.1196C153.76 59.0415 155.364 58.9998 156.969 58.9998C158.568 58.9998 160.172 59.0415 161.771 59.1196C163.375 59.1978 164.974 59.3175 166.568 59.4738C168.161 59.63 169.755 59.8228 171.338 60.0571C172.927 60.2915 174.505 60.5675 176.078 60.8748C177.651 61.1873 179.213 61.5363 180.771 61.9269C182.323 62.3123 183.87 62.7394 185.406 63.203C186.937 63.6665 188.458 64.1665 189.969 64.7082C191.479 65.2446 192.974 65.8175 194.458 66.4269C195.937 67.0415 197.406 67.6873 198.854 68.3696C200.307 69.0519 201.739 69.7707 203.151 70.5259C204.568 71.2759 205.963 72.0623 207.338 72.8853C208.713 73.7082 210.073 74.5623 211.406 75.4478C212.739 76.3332 214.052 77.255 215.338 78.2082C216.63 79.1561 217.896 80.1405 219.135 81.1509C220.375 82.1665 221.594 83.2082 222.781 84.2811C223.974 85.354 225.135 86.4582 226.271 87.5884L235.656 78.5519Z" fill="white"/>
<path d="M203.958 109.594C202.396 108.078 200.771 106.641 199.073 105.281C197.375 103.922 195.615 102.646 193.797 101.458C191.974 100.271 190.099 99.172 188.172 98.1616C186.245 97.1564 184.276 96.2397 182.26 95.422C180.245 94.6043 178.198 93.8856 176.109 93.2658C174.026 92.646 171.917 92.1252 169.781 91.7085C167.646 91.2918 165.495 90.9793 163.328 90.771C161.167 90.5627 158.995 90.4585 156.818 90.4585C154.646 90.4585 152.474 90.5627 150.307 90.771C148.141 90.9793 145.995 91.2918 143.859 91.7085C141.724 92.1252 139.615 92.646 137.526 93.2658C135.443 93.8856 133.391 94.6043 131.38 95.422C129.365 96.2397 127.391 97.1564 125.464 98.1616C123.536 99.172 121.661 100.271 119.844 101.458C118.021 102.646 116.266 103.922 114.568 105.281C112.87 106.641 111.24 108.078 109.682 109.594C107.37 111.912 105.245 114.386 103.297 117.016C101.354 119.646 99.6146 122.406 98.0729 125.292C96.5365 128.182 95.2135 131.162 94.1146 134.245C93.0156 137.323 92.151 140.469 91.5156 143.677C90.8802 146.886 90.4792 150.125 90.3229 153.391C90.1615 156.656 90.2448 159.917 90.5625 163.172C90.8854 166.427 91.4427 169.641 92.2396 172.813C93.0313 175.985 94.0573 179.083 95.3073 182.104C96.5573 185.13 98.0208 188.042 99.7031 190.849C101.385 193.656 103.26 196.328 105.333 198.86C107.406 201.391 109.656 203.755 112.078 205.958C114.5 208.156 117.068 210.172 119.786 211.995C122.505 213.818 125.344 215.432 128.302 216.839C131.255 218.245 134.302 219.427 137.432 220.386C140.563 221.349 143.745 222.073 146.984 222.563C150.224 223.057 153.479 223.307 156.755 223.323C161.146 223.344 165.495 222.932 169.802 222.084C174.115 221.235 178.297 219.964 182.349 218.271C186.401 216.583 190.245 214.511 193.88 212.047C197.516 209.583 200.87 206.787 203.943 203.651L194.839 194.63C193.583 195.849 192.271 197 190.906 198.089C189.542 199.182 188.125 200.203 186.661 201.156C185.198 202.11 183.688 202.99 182.141 203.797C180.589 204.604 179.005 205.339 177.385 205.995C175.766 206.651 174.115 207.229 172.443 207.724C170.766 208.219 169.068 208.636 167.354 208.969C165.635 209.307 163.911 209.557 162.167 209.724C160.427 209.891 158.688 209.974 156.938 209.974C155.188 209.974 153.443 209.891 151.703 209.724C149.964 209.557 148.234 209.307 146.521 208.969C144.802 208.636 143.109 208.219 141.432 207.724C139.755 207.229 138.109 206.651 136.49 205.995C134.87 205.339 133.286 204.604 131.734 203.797C130.188 202.99 128.677 202.11 127.214 201.156C125.75 200.203 124.333 199.182 122.969 198.089C121.604 197 120.292 195.849 119.036 194.63C117.802 193.391 116.63 192.094 115.521 190.74C114.417 189.386 113.375 187.979 112.406 186.521C111.438 185.063 110.542 183.563 109.719 182.021C108.901 180.474 108.156 178.891 107.49 177.276C106.823 175.656 106.24 174.011 105.734 172.339C105.229 170.662 104.813 168.964 104.474 167.25C104.135 165.531 103.885 163.802 103.719 162.063C103.547 160.323 103.469 158.578 103.474 156.828C103.479 155.078 103.568 153.333 103.745 151.594C103.922 149.854 104.182 148.125 104.526 146.412C104.875 144.698 105.302 143 105.818 141.328C106.328 139.656 106.922 138.016 107.599 136.401C108.271 134.787 109.026 133.208 109.854 131.667C110.682 130.125 111.589 128.63 112.563 127.177C113.542 125.729 114.589 124.328 115.703 122.979C116.818 121.63 117.995 120.339 119.234 119.104C120.479 117.87 121.776 116.698 123.135 115.594C124.49 114.49 125.896 113.453 127.359 112.485C128.818 111.516 130.318 110.62 131.865 109.802C133.411 108.979 134.995 108.24 136.615 107.573C138.234 106.906 139.885 106.323 141.563 105.818C143.24 105.318 144.938 104.896 146.656 104.557C148.375 104.224 150.104 103.969 151.849 103.802C153.594 103.636 155.339 103.557 157.094 103.563C158.844 103.563 160.589 103.656 162.333 103.833C164.078 104.005 165.807 104.271 167.521 104.615C169.24 104.958 170.938 105.391 172.609 105.901C174.286 106.412 175.932 107.005 177.547 107.677C179.161 108.354 180.745 109.104 182.286 109.932C183.828 110.761 185.328 111.662 186.781 112.641C188.234 113.615 189.635 114.662 190.984 115.771C192.339 116.886 193.63 118.063 194.865 119.302L203.958 109.594Z" fill="white"/>
<path d="M166.302 147.505C166.61 147.813 166.948 148.084 167.307 148.323C167.672 148.563 168.052 148.761 168.459 148.927C168.86 149.089 169.276 149.214 169.698 149.297C170.125 149.38 170.557 149.427 170.99 149.427C171.427 149.427 171.86 149.38 172.287 149.297C172.709 149.214 173.125 149.089 173.526 148.927C173.927 148.761 174.313 148.563 174.677 148.323C175.037 148.084 175.375 147.813 175.682 147.505C175.985 147.203 176.255 146.87 176.495 146.516C176.729 146.156 176.932 145.781 177.094 145.386C177.255 144.99 177.38 144.578 177.464 144.162C177.547 143.74 177.589 143.318 177.589 142.886C177.589 142.459 177.547 142.037 177.464 141.615C177.38 141.193 177.255 140.787 177.094 140.391C176.932 139.995 176.729 139.615 176.495 139.261C176.255 138.901 175.985 138.573 175.682 138.266C174.761 137.36 173.776 136.526 172.735 135.766C171.688 135 170.594 134.318 169.448 133.714C168.302 133.11 167.12 132.589 165.901 132.156C164.682 131.724 163.438 131.386 162.167 131.136C160.896 130.88 159.615 130.724 158.323 130.662C157.031 130.594 155.74 130.625 154.453 130.745C153.162 130.87 151.891 131.084 150.63 131.391C149.375 131.698 148.146 132.094 146.948 132.584C145.75 133.068 144.589 133.636 143.474 134.292C142.36 134.948 141.292 135.677 140.287 136.485C139.276 137.297 138.328 138.172 137.448 139.12C136.568 140.068 135.755 141.073 135.021 142.136C134.287 143.198 133.63 144.313 133.057 145.469C132.485 146.63 132 147.823 131.599 149.052C131.198 150.281 130.891 151.537 130.677 152.807C130.459 154.084 130.334 155.365 130.307 156.656C130.281 158.417 130.438 160.162 130.776 161.886C131.115 163.61 131.625 165.287 132.313 166.901C133 168.521 133.844 170.057 134.849 171.5C135.854 172.943 136.995 174.271 138.276 175.474C140.714 177.969 143.526 179.912 146.724 181.297C149.922 182.688 153.266 183.422 156.755 183.495C158.511 183.479 160.255 183.292 161.974 182.932C163.698 182.578 165.37 182.057 166.99 181.37C168.61 180.682 170.146 179.849 171.604 178.86C173.057 177.875 174.406 176.755 175.641 175.505C175.943 175.214 176.209 174.891 176.443 174.542C176.682 174.198 176.88 173.828 177.042 173.443C177.209 173.052 177.328 172.656 177.412 172.245C177.495 171.834 177.537 171.417 177.537 170.995C177.537 170.578 177.495 170.162 177.412 169.75C177.328 169.339 177.209 168.938 177.042 168.552C176.88 168.162 176.682 167.797 176.443 167.448C176.209 167.099 175.943 166.781 175.641 166.485C175.349 166.146 175.026 165.844 174.672 165.578C174.318 165.307 173.938 165.084 173.531 164.896C173.125 164.709 172.703 164.568 172.271 164.474C171.834 164.375 171.396 164.328 170.948 164.328C170.5 164.328 170.063 164.375 169.625 164.474C169.193 164.568 168.771 164.709 168.365 164.896C167.959 165.084 167.578 165.307 167.224 165.578C166.87 165.844 166.547 166.146 166.255 166.485C164.938 167.636 163.464 168.526 161.828 169.162C160.198 169.792 158.505 170.125 156.755 170.156C155.063 170.073 153.438 169.714 151.87 169.084C150.307 168.448 148.886 167.573 147.62 166.459C146.974 165.849 146.401 165.182 145.896 164.453C145.386 163.729 144.959 162.959 144.61 162.146C144.261 161.334 143.995 160.49 143.818 159.625C143.641 158.755 143.547 157.88 143.547 156.995C143.547 156.11 143.641 155.235 143.818 154.37C143.995 153.5 144.261 152.662 144.61 151.849C144.959 151.037 145.386 150.266 145.896 149.542C146.401 148.813 146.974 148.146 147.62 147.537C148.229 146.922 148.901 146.38 149.62 145.896C150.339 145.417 151.099 145.011 151.901 144.677C152.703 144.349 153.526 144.094 154.375 143.927C155.229 143.755 156.089 143.672 156.953 143.672C157.818 143.667 158.677 143.75 159.531 143.917C160.38 144.084 161.203 144.334 162.005 144.662C162.807 144.99 163.573 145.396 164.292 145.875C165.016 146.354 165.682 146.896 166.302 147.505Z" fill="white"/>
<path d="M194.958 144.883V173.758H187.312V144.883H194.958Z" fill="#FCFFFD"/>
<path d="M203.186 149.841C201.837 149.841 200.753 149.477 199.936 148.737C199.113 147.987 198.707 147.06 198.707 145.945C198.707 144.794 199.113 143.841 199.936 143.091C200.753 142.341 201.837 141.966 203.186 141.966C204.519 141.966 205.592 142.341 206.415 143.091C207.233 143.841 207.644 144.794 207.644 145.945C207.644 147.06 207.233 147.987 206.415 148.737C205.592 149.477 204.519 149.841 203.186 149.841ZM206.977 151.862V173.758H199.332V151.862H206.977Z" fill="#FCFFFD"/>
<path d="M239.955 151.675C242.705 151.675 244.861 152.508 246.434 154.175C248.018 155.841 248.809 158.123 248.809 161.008V173.758H241.164V162.008C241.164 160.841 240.835 159.935 240.184 159.279C239.528 158.628 238.648 158.3 237.539 158.3C236.414 158.3 235.523 158.628 234.872 159.279C234.216 159.935 233.893 160.841 233.893 162.008V173.758H226.247V162.008C226.247 160.841 225.924 159.935 225.289 159.279C224.664 158.628 223.789 158.3 222.664 158.3C221.523 158.3 220.627 158.628 219.976 159.279C219.32 159.935 218.997 160.841 218.997 162.008V173.758H211.351V151.862H218.997V154.758C219.674 153.815 220.549 153.065 221.622 152.508C222.705 151.956 223.945 151.675 225.351 151.675C226.96 151.675 228.398 152.029 229.664 152.737C230.924 153.435 231.924 154.42 232.664 155.696C233.44 154.503 234.46 153.539 235.726 152.8C237.002 152.05 238.414 151.675 239.955 151.675Z" fill="#FCFFFD"/>
<path d="M251.74 162.8C251.74 160.539 252.146 158.56 252.969 156.862C253.787 155.169 254.906 153.873 256.323 152.966C257.74 152.05 259.323 151.591 261.073 151.591C262.573 151.591 263.87 151.893 264.969 152.487C266.063 153.086 266.912 153.893 267.511 154.904V151.862H275.156V173.758H267.511V170.716C266.912 171.732 266.057 172.539 264.948 173.133C263.833 173.732 262.542 174.029 261.073 174.029C259.323 174.029 257.74 173.581 256.323 172.675C254.906 171.758 253.787 170.456 252.969 168.758C252.146 167.05 251.74 165.065 251.74 162.8ZM267.511 162.8C267.511 161.399 267.12 160.294 266.344 159.487C265.578 158.669 264.641 158.258 263.531 158.258C262.375 158.258 261.427 158.664 260.677 159.466C259.927 160.258 259.552 161.373 259.552 162.8C259.552 164.206 259.927 165.315 260.677 166.133C261.427 166.956 262.375 167.362 263.531 167.362C264.641 167.362 265.578 166.961 266.344 166.154C267.12 165.352 267.511 164.232 267.511 162.8Z" fill="#FCFFFD"/>
</svg>
